{"title":"BÃƒÂ¤rgarns hejdlÃƒÂ¶sa historier 720p (svenska rÃƒÂ¶ster)","uid":6375322,"size":814610811,"categoryP":"video","categoryS":"hd___movies","magnet":"?xt=urn:btih:b695ef8b2cbf5a0d1a71a8a6010c0fccae135db8&amp;dn=B%C3%83%C2%A4rgarns+hejdl%C3%83%C2%B6sa+historier+720p+%28svenska+r%C3%83%C2%B6ster%29&amp;tr=udp%3A%2F%2Ftracker.openbittorrent.com%3A80&amp;tr=udp%3A%2F%2Fopen.demonii.com%3A1337&amp;tr=udp%3A%2F%2Ftracker.coppersurfer.tk%3A6969&amp;tr=udp%3A%2F%2Fexodus.desync.com%3A6969","seeders":3,"leechers":1,"uploader":"scanner.nightly","files":1,"time":1304838716,"description":"IMDB Link:  &lt;a href=&quot; http://www.imdb.com/title/tt1384816/&quot; rel=&quot;nofollow&quot; target=&quot;_NEW&quot;&gt; http://www.imdb.com/title/tt1384816/&lt;/a&gt;\nIMDB Rating: 7.1\n\n\nGeneral\nComplete name                    : BÃƒÂ¤rgarns.hejdlÃƒÂ¶sa.historier.BestHD.mkv\nFormat                           : Matroska\nFile size                        : 777 MiB\nDuration                         : 34mn 9s\nOverall bit rate                 : 3 179 Kbps\nEncoded date                     : UTC 2011-05-07 16:08:29\nWriting application              : mkvmerge v4.7.0\nWriting library                  : libebml v1.2.0 + libmatroska v1.1.0\n\nVideo\nID                               : 1\nFormat                           : AVC\nFormat/Info                      : Advanced Video Codec\nFormat profile                   : &lt;a class=&quot;__cf_email__&quot; href=&quot;/cdn-cgi/l/email-protection&quot; data-cfemail=&quot;c088a9a7a8808cf4eef1&quot;&gt;[email&amp;#160;protected]&lt;/a&gt;&lt;script cf-hash='f9e31' type=&quot;text/javascript&quot;&gt;\n/* &lt;![CDATA[ */!function(){try{var t=&quot;currentScript&quot;in document?document.currentScript:function(){for(var t=document.getElementsByTagName(&quot;script&quot;),e=t.length;e--;)if(t[e].getAttribute(&quot;cf-hash&quot;))return t[e]}();if(t&amp;&amp;t.previousSibling){var e,r,n,i,c=t.previousSibling,a=c.getAttribute(&quot;data-cfemail&quot;);if(a){for(e=&quot;&quot;,r=parseInt(a.substr(0,2),16),n=2;a.length-n;n+=2)i=parseInt(a.substr(n,2),16)^r,e+=String.fromCharCode(i);e=document.createTextNode(e),c.parentNode.replaceChild(e,c)}}}catch(u){}}();/* ]]&gt; */&lt;/script&gt;\nFormat settings, CABAC           : Yes\nFormat settings, ReFrames        : 5 frames\nCodec ID                         : V_MPEG4/ISO/AVC\nDuration                         : 34mn 9s\nBit rate                         : 2 863 Kbps\nWidth                            : 1 280 pixels\nHeight                           : 720 pixels\nDisplay aspect ratio             : 16:9\nFrame rate                       : 25.000 fps\nOriginal frame rate              : 23.976 fps\nColor space                      : YUV\nChroma subsampling               : 4:2:0\nBit depth                        : 8 bits\nScan type                        : Progressive\nBits/(Pixel*Frame)               : 0.124\nStream size                      : 714 MiB (92%)\nWriting library                  : x264 core 107 r1745 4785e8e\n\nAudio\nID                               : 2\nFormat                           : MPEG Audio\nFormat version                   : Version 1\nFormat profile                   : Layer 3\nCodec ID                         : A_MPEG/L3\nCodec ID/Hint                    : MP3\nDuration                         : 34mn 9s\nBit rate mode                    : Constant\nBit rate                         : 192 Kbps\nChannel(s)                       : 2 channels\nSampling rate                    : 44.1 KHz\nCompression mode                 : Lossy\nDelay relative to video          : 9ms\nStream size                      : 46.9 MiB (6%)\nWriting library                  : LAME3.92\n","torrent":{"xt":"urn:btih:b695ef8b2cbf5a0d1a71a8a6010c0fccae135db8","amp;dn":"B%C3%83%C2%A4rgarns+hejdl%C3%83%C2%B6sa+historier+720p+%28svenska+r%C3%83%C2%B6ster%29","amp;tr":["udp%3A%2F%2Ftracker.openbittorrent.com%3A80","udp%3A%2F%2Fopen.demonii.com%3A1337","udp%3A%2F%2Ftracker.coppersurfer.tk%3A6969","udp%3A%2F%2Fexodus.desync.com%3A6969"],"infoHash":"b695ef8b2cbf5a0d1a71a8a6010c0fccae135db8","infoHashBuffer":{"type":"Buffer","data":[182,149,239,139,44,191,90,13,26,113,168,166,1,12,15,204,174,19,93,184]},"announce":[],"urlList":[]}}